<svg xmlns="http://www.w3.org/2000/svg" style="display: none;">

  <symbol id="phone" viewBox="0 0 16 16">
    <path d="M13.65.27c-.633-.44-1.326-.28-1.61.122-.17.244-1.952 2.914-2.15 3.24-.09.145-.132.318-.132.507 0 .24.07.51.21.77.136.25.58 1.03.798 1.41-.236.332-.842 1.12-2.087 2.362-1.24 1.235-2.04 1.845-2.38 2.08-.39-.216-1.17-.66-1.42-.794-.49-.253-.97-.28-1.3-.074-.3.2-2.96 1.97-3.21 2.15-.24.17-.37.48-.37.813 0 .263.08.542.25.785.012.03 1.69 2.37 2.66 2.34 2.723-.08 5.93-2.725 8.133-4.925 2.204-2.2 4.852-5.39 4.94-8.12v-.02c0-.953-2.324-2.632-2.346-2.65zm-3.304 10.09c-2.915 2.905-5.543 4.55-7.413 4.635-.354-.126-1.26-1.04-1.89-1.91-.044-.062-.07-.143-.07-.216 0-.02.002-.03.004-.05.41-.28 2.694-1.79 3.122-2.06.04 0 .15.01.32.1.17.09.68.37 1.39.77l.55.312.52-.364c.38-.27 1.22-.915 2.5-2.19 1.28-1.28 1.93-2.114 2.2-2.5l.36-.52-.32-.546c-.308-.53-.67-1.175-.78-1.384-.09-.17-.1-.282-.1-.313v-.01c.24-.38 1.79-2.71 2.074-3.12.04-.004.126 0 .233.077.88.633 1.8 1.53 1.93 1.882-.087 1.87-1.735 4.492-4.647 7.396z"/>
  </symbol>

  <symbol id="email" viewBox="0 0 16 16">
    <title>An icon of an envelope</title>
    <path d="M8 0L0 5v11h16V5L8 0zm0 1l6.794 4.368-7.02 5.325-1.78-1.436.003-.005-.822-.655L1.19 5.38 8 1zM1 6.527l3.554 2.868L1 13.965V6.528zM1.527 15l3.845-4.944 2.117 1.708.23.233.03-.02.025.02.176-.175 2.548-1.93L14.472 15H1.527zM15 13.966l-3.662-4.71L15 6.48v7.486z"/>
  </symbol>

  <symbol id="menu" viewBox="0 0 20 16">
    <title>A hamburger menu open</title>
    <path d="M1 2c-.6 0-1-.5-1-1 0-.6.4-1 1-1h18c.5 0 1 .4 1 1 0 .5-.5 1-1 1H1zm0 7c-.6 0-1-.4-1-1s.4-1 1-1h18c.5 0 1 .4 1 1s-.5 1-1 1H1zm0 7c-.6 0-1-.5-1-1 0-.6.4-1 1-1h18c.5 0 1 .4 1 1 0 .5-.5 1-1 1H1z"/>
  </symbol>
  <symbol id="bottle" viewBox="0 0 30 67">
    <path d="M27.37 20.06a3 3 0 0 0 1.21-2.39v-.33a3 3 0 0 0-3-3h-.73a10 10 0 0 0-6.61-7.78V3a3 3 0 0 0-3-3h-.33a3 3 0 0 0-3 3v3.49a10 10 0 0 0-6.78 7.84h-.56a3 3 0 0 0-3 3v.33A3 3 0 0 0 2.7 20 9.64 9.64 0 0 0 0 26.63V58a1 1 0 0 0 0 .16 1 1 0 0 0 .08.39A9.64 9.64 0 0 0 9.63 67h10.73A9.65 9.65 0 0 0 30 57.36V26.63a9.63 9.63 0 0 0-2.63-6.57zM13.15 8.22l.77-.18V3a1 1 0 0 1 1-1h.33a1 1 0 0 1 1 1v5.07l.75.19a8 8 0 0 1 5.82 6.07H7.18a8 8 0 0 1 5.97-6.11zm-9.56 9.11a1 1 0 0 1 1-1h21a1 1 0 0 1 1 1v.33a1 1 0 0 1-1 1h-21a1 1 0 0 1-1-1zM28 57.36A7.64 7.64 0 0 1 20.37 65H9.64a7.64 7.64 0 0 1-7.41-5.83h6.44a1 1 0 1 0 0-2H2v-3h3.67a1 1 0 0 0 0-2H2v-3h6.67a1 1 0 0 0 0-2H2v-3h3.67a1 1 0 0 0 0-2H2v-3h6.67a1 1 0 0 0 0-2H2v-3h3.67a1 1 0 0 0 0-2H2v-3h6.67a1 1 0 0 0 0-2H2v-.53a7.66 7.66 0 0 1 2.91-6h20.18a7.64 7.64 0 0 1 2.91 6z"/>
  </symbol>
  <symbol id="menu-close" viewBox="0 0 16 16">
    <title>A cross icon to close the menu</title>
    <path d="M15.02.92c-.4-.4-1-.4-1.4 0L7.956 6.584 2.306.934c-.4-.4-1-.4-1.4 0-.414.414-.414 1.014-.014 1.414l5.65 5.65L.92 13.62c-.4.4-.4 1 0 1.4.4.4 1 .4 1.4 0l5.622-5.622 5.65 5.65c.4.4 1.014.386 1.414-.014.4-.4.4-1 0-1.4l-5.65-5.65L15.02 2.32c.4-.4.4-1 0-1.4z"/>
  </symbol>
  <symbol id="tshirt" viewBox="0 0 16 16">
    <path d="M11 2s-.5 2.5-3 2.5S5 2 5 2L0 4.5l1 4L4 8v6.998h8v-7l3 .5 1-4L11 2zm3.32 5.372L11 7v7H5V7l-3.32.372-.457-2.367 3.245-1.622C5.038 4.42 6.145 5.498 8 5.498s2.963-1.078 3.533-2.115l3.244 1.622-.457 2.367z"/>
  </symbol>
  <symbol id="car" viewBox="0 0 16 16">
    <path d="M3.5 9C2.67 9 2 9.67 2 10.5c0 .827.67 1.5 1.5 1.5S5 11.326 5 10.5C5 9.67 4.33 9 3.5 9zm0 2c-.276 0-.5-.225-.5-.5s.224-.5.5-.5.5.223.5.5-.224.5-.5.5zm9-2c-.828 0-1.5.67-1.5 1.5 0 .827.672 1.5 1.5 1.5s1.5-.673 1.5-1.5c0-.83-.672-1.5-1.5-1.5zm0 2c-.275 0-.5-.225-.5-.5s.225-.5.5-.5.5.223.5.5-.225.5-.5.5zM16 6.5v-1c0-.277-.225-.5-.5-.5h-1c-.033 0-.064.013-.096.02L14 3c0-1.658-1.344-3-3-3H5C3.343 0 2 1.34 2 3l-.404 2.02C1.564 5.012 1.534 5 1.5 5h-1c-.276 0-.5.223-.5.5v1c0 .275.224.5.5.5h.7l-.038.188C.478 7.506 0 8.194 0 8.998v5h1v1C1 15.553 1.448 16 2 16h1c.552 0 1-.448 1-1v-1h8v1c0 .552.447 1 1 1h1c.553 0 1-.448 1-1v-1h1V9c0-.806-.48-1.494-1.162-1.812l-.037-.19h.7c.276 0 .5-.223.5-.5zM3 3c0-1.106.896-2 2-2h6c1.105 0 2 .894 2 2l.8 4H2.2L3 3zm0 11.5c0 .275-.224.5-.5.5s-.5-.225-.5-.5V14h1v.5zm11 0c0 .275-.225.5-.5.5s-.5-.225-.5-.5V14h1v.5zM15 9v3c0 .55-.447 1-1 1H2c-.552 0-1-.45-1-1V9c0-.554.448-1 1-1h12c.553 0 1 .446 1 1z"/>
  </symbol>
  <symbol id="arrow-right" viewBox="0 0 16 16">
    <path d="M6,11.999l5-4l-5-4V11.999z M14-0.001H2c-1.104,0-2,0.896-2,2v12c0,1.104,0.896,2,2,2h12c1.105,0,2-0.896,2-2v-12
  		C16,0.895,15.105-0.001,14-0.001z M15,13.999c0,0.553-0.447,1-1,1H2c-0.552,0-1-0.447-1-1v-12c0-0.552,0.448-1,1-1h12
  		c0.553,0,1,0.448,1,1V13.999z"/>
  </symbol>
</svg>
