<svg xmlns="http://www.w3.org/2000/svg" style="display: none;">

  <symbol id="phone" viewBox="0 0 16 16">
    <path d="M13.65.27c-.633-.44-1.326-.28-1.61.122-.17.244-1.952 2.914-2.15 3.24-.09.145-.132.318-.132.507 0 .24.07.51.21.77.136.25.58 1.03.798 1.41-.236.332-.842 1.12-2.087 2.362-1.24 1.235-2.04 1.845-2.38 2.08-.39-.216-1.17-.66-1.42-.794-.49-.253-.97-.28-1.3-.074-.3.2-2.96 1.97-3.21 2.15-.24.17-.37.48-.37.813 0 .263.08.542.25.785.012.03 1.69 2.37 2.66 2.34 2.723-.08 5.93-2.725 8.133-4.925 2.204-2.2 4.852-5.39 4.94-8.12v-.02c0-.953-2.324-2.632-2.346-2.65zm-3.304 10.09c-2.915 2.905-5.543 4.55-7.413 4.635-.354-.126-1.26-1.04-1.89-1.91-.044-.062-.07-.143-.07-.216 0-.02.002-.03.004-.05.41-.28 2.694-1.79 3.122-2.06.04 0 .15.01.32.1.17.09.68.37 1.39.77l.55.312.52-.364c.38-.27 1.22-.915 2.5-2.19 1.28-1.28 1.93-2.114 2.2-2.5l.36-.52-.32-.546c-.308-.53-.67-1.175-.78-1.384-.09-.17-.1-.282-.1-.313v-.01c.24-.38 1.79-2.71 2.074-3.12.04-.004.126 0 .233.077.88.633 1.8 1.53 1.93 1.882-.087 1.87-1.735 4.492-4.647 7.396z"/>
  </symbol>

  <symbol id="email" viewBox="0 0 16 16">
    <title>An icon of an envelope</title>
    <path d="M8 0L0 5v11h16V5L8 0zm0 1l6.794 4.368-7.02 5.325-1.78-1.436.003-.005-.822-.655L1.19 5.38 8 1zM1 6.527l3.554 2.868L1 13.965V6.528zM1.527 15l3.845-4.944 2.117 1.708.23.233.03-.02.025.02.176-.175 2.548-1.93L14.472 15H1.527zM15 13.966l-3.662-4.71L15 6.48v7.486z"/>
  </symbol>

  <symbol id="menu" viewBox="0 0 20 16">
    <title>A hamburger menu open</title>
    <path d="M1 2c-.6 0-1-.5-1-1 0-.6.4-1 1-1h18c.5 0 1 .4 1 1 0 .5-.5 1-1 1H1zm0 7c-.6 0-1-.4-1-1s.4-1 1-1h18c.5 0 1 .4 1 1s-.5 1-1 1H1zm0 7c-.6 0-1-.5-1-1 0-.6.4-1 1-1h18c.5 0 1 .4 1 1 0 .5-.5 1-1 1H1z"/>
  </symbol>
  <symbol id="bottle" viewBox="0 0 30 67">
    <path d="M27.37 20.06a3 3 0 0 0 1.21-2.39v-.33a3 3 0 0 0-3-3h-.73a10 10 0 0 0-6.61-7.78V3a3 3 0 0 0-3-3h-.33a3 3 0 0 0-3 3v3.49a10 10 0 0 0-6.78 7.84h-.56a3 3 0 0 0-3 3v.33A3 3 0 0 0 2.7 20 9.64 9.64 0 0 0 0 26.63V58a1 1 0 0 0 0 .16 1 1 0 0 0 .08.39A9.64 9.64 0 0 0 9.63 67h10.73A9.65 9.65 0 0 0 30 57.36V26.63a9.63 9.63 0 0 0-2.63-6.57zM13.15 8.22l.77-.18V3a1 1 0 0 1 1-1h.33a1 1 0 0 1 1 1v5.07l.75.19a8 8 0 0 1 5.82 6.07H7.18a8 8 0 0 1 5.97-6.11zm-9.56 9.11a1 1 0 0 1 1-1h21a1 1 0 0 1 1 1v.33a1 1 0 0 1-1 1h-21a1 1 0 0 1-1-1zM28 57.36A7.64 7.64 0 0 1 20.37 65H9.64a7.64 7.64 0 0 1-7.41-5.83h6.44a1 1 0 1 0 0-2H2v-3h3.67a1 1 0 0 0 0-2H2v-3h6.67a1 1 0 0 0 0-2H2v-3h3.67a1 1 0 0 0 0-2H2v-3h6.67a1 1 0 0 0 0-2H2v-3h3.67a1 1 0 0 0 0-2H2v-3h6.67a1 1 0 0 0 0-2H2v-.53a7.66 7.66 0 0 1 2.91-6h20.18a7.64 7.64 0 0 1 2.91 6z"/>
  </symbol>
  <symbol id="menu-close" viewBox="0 0 16 16">
    <title>A cross icon to close the menu</title>
    <path d="M15.02.92c-.4-.4-1-.4-1.4 0L7.956 6.584 2.306.934c-.4-.4-1-.4-1.4 0-.414.414-.414 1.014-.014 1.414l5.65 5.65L.92 13.62c-.4.4-.4 1 0 1.4.4.4 1 .4 1.4 0l5.622-5.622 5.65 5.65c.4.4 1.014.386 1.414-.014.4-.4.4-1 0-1.4l-5.65-5.65L15.02 2.32c.4-.4.4-1 0-1.4z"/>
  </symbol>
  <symbol id="tshirt" viewBox="0 0 16 16">
    <path d="M11 2s-.5 2.5-3 2.5S5 2 5 2L0 4.5l1 4L4 8v6.998h8v-7l3 .5 1-4L11 2zm3.32 5.372L11 7v7H5V7l-3.32.372-.457-2.367 3.245-1.622C5.038 4.42 6.145 5.498 8 5.498s2.963-1.078 3.533-2.115l3.244 1.622-.457 2.367z"/>
  </symbol>
  <symbol id="car" viewBox="0 0 16 16">
    <path d="M3.5 9C2.67 9 2 9.67 2 10.5c0 .827.67 1.5 1.5 1.5S5 11.326 5 10.5C5 9.67 4.33 9 3.5 9zm0 2c-.276 0-.5-.225-.5-.5s.224-.5.5-.5.5.223.5.5-.224.5-.5.5zm9-2c-.828 0-1.5.67-1.5 1.5 0 .827.672 1.5 1.5 1.5s1.5-.673 1.5-1.5c0-.83-.672-1.5-1.5-1.5zm0 2c-.275 0-.5-.225-.5-.5s.225-.5.5-.5.5.223.5.5-.225.5-.5.5zM16 6.5v-1c0-.277-.225-.5-.5-.5h-1c-.033 0-.064.013-.096.02L14 3c0-1.658-1.344-3-3-3H5C3.343 0 2 1.34 2 3l-.404 2.02C1.564 5.012 1.534 5 1.5 5h-1c-.276 0-.5.223-.5.5v1c0 .275.224.5.5.5h.7l-.038.188C.478 7.506 0 8.194 0 8.998v5h1v1C1 15.553 1.448 16 2 16h1c.552 0 1-.448 1-1v-1h8v1c0 .552.447 1 1 1h1c.553 0 1-.448 1-1v-1h1V9c0-.806-.48-1.494-1.162-1.812l-.037-.19h.7c.276 0 .5-.223.5-.5zM3 3c0-1.106.896-2 2-2h6c1.105 0 2 .894 2 2l.8 4H2.2L3 3zm0 11.5c0 .275-.224.5-.5.5s-.5-.225-.5-.5V14h1v.5zm11 0c0 .275-.225.5-.5.5s-.5-.225-.5-.5V14h1v.5zM15 9v3c0 .55-.447 1-1 1H2c-.552 0-1-.45-1-1V9c0-.554.448-1 1-1h12c.553 0 1 .446 1 1z"/>
  </symbol>
  <symbol id="arrow-right" viewBox="0 0 16 16">
    <path d="M6,11.999l5-4l-5-4V11.999z M14-0.001H2c-1.104,0-2,0.896-2,2v12c0,1.104,0.896,2,2,2h12c1.105,0,2-0.896,2-2v-12
  		C16,0.895,15.105-0.001,14-0.001z M15,13.999c0,0.553-0.447,1-1,1H2c-0.552,0-1-0.447-1-1v-12c0-0.552,0.448-1,1-1h12
  		c0.553,0,1,0.448,1,1V13.999z"/>
  </symbol>

  <symbol id="facebook" viewBox="0 0 268 268">
      <path d="M252.716.553H15.284C7.146.553.554 7.146.554 15.283v237.434c0 8.135 6.592 14.73 14.73 14.73H143.11V164.092h-34.782v-40.28h34.78V94.107c0-34.473 21.055-53.244 51.808-53.244 14.73 0 27.39 1.097 31.08 1.587v36.026l-21.33.01c-16.723 0-19.96 7.947-19.96 19.61v25.716h39.885l-5.19 40.28h-34.69v103.355h68.01c8.136 0 14.73-6.595 14.73-14.73V15.283c0-8.137-6.594-14.73-14.73-14.73"/>
  </symbol>
  <symbol id="instagram" viewBox="0 0 504 504">
    <path d="M252 45.47c67.266 0 75.233.257 101.797 1.47 24.562 1.12 37.9 5.224 46.78 8.673 11.757 4.57 20.15 10.03 28.965 18.845 8.815 8.815 14.275 17.208 18.844 28.966 3.45 8.878 7.554 22.217 8.675 46.778 1.215 26.565 1.47 34.532 1.47 101.798s-.255 75.233-1.47 101.797c-1.12 24.562-5.222 37.9-8.672 46.78-4.57 11.757-10.03 20.15-18.844 28.965-8.815 8.815-17.208 14.275-28.966 18.844-8.878 3.45-22.217 7.554-46.78 8.675-26.56 1.215-34.526 1.47-101.796 1.47-67.27 0-75.236-.255-101.796-1.47-24.562-1.12-37.9-5.222-46.778-8.672-11.76-4.57-20.152-10.03-28.967-18.844-8.815-8.815-14.275-17.208-18.844-28.966-3.45-8.878-7.554-22.217-8.675-46.778-1.212-26.566-1.47-34.533-1.47-101.8s.258-75.232 1.47-101.796c1.12-24.562 5.225-37.9 8.675-46.78 4.57-11.757 10.03-20.15 18.844-28.965 8.814-8.817 17.207-14.277 28.966-18.847 8.877-3.45 22.216-7.553 46.777-8.674 26.565-1.214 34.532-1.47 101.798-1.47m0-45.39c-68.417 0-76.995.29-103.865 1.514-26.815 1.224-45.127 5.482-61.152 11.71-16.566 6.438-30.615 15.052-44.62 29.057-14.005 14.006-22.62 28.055-29.057 44.62-6.228 16.026-10.486 34.338-11.71 61.153C.37 175.003.08 183.583.08 252s.29 76.997 1.515 103.866c1.224 26.815 5.482 45.127 11.71 61.152 6.438 16.565 15.052 30.615 29.057 44.62 14.005 14.005 28.054 22.62 44.62 29.057 16.025 6.228 34.337 10.486 61.152 11.71 26.87 1.226 35.448 1.515 103.866 1.515s76.997-.29 103.866-1.515c26.815-1.224 45.127-5.482 61.152-11.71 16.566-6.438 30.615-15.052 44.62-29.057 14.005-14.005 22.62-28.054 29.057-44.62 6.228-16.025 10.486-34.337 11.71-61.152 1.226-26.87 1.516-35.448 1.516-103.866s-.29-76.997-1.513-103.866c-1.224-26.815-5.482-45.127-11.71-61.152-6.438-16.566-15.052-30.615-29.057-44.62-14.006-14.005-28.055-22.62-44.62-29.057-16.026-6.228-34.338-10.486-61.153-11.71C328.997.37 320.417.08 252 .08"/>
    <path d="M252 122.635c-71.446 0-129.365 57.92-129.365 129.365 0 71.446 57.92 129.365 129.365 129.365 71.446 0 129.365-57.92 129.365-129.365 0-71.446-57.92-129.365-129.365-129.365zm0 213.34c-46.377 0-83.974-37.598-83.974-83.975 0-46.377 37.597-83.974 83.974-83.974s83.974 37.597 83.974 83.974-37.597 83.974-83.974 83.974zm164.706-218.45c0 16.695-13.534 30.23-30.23 30.23-16.696 0-30.23-13.535-30.23-30.23 0-16.697 13.534-30.23 30.23-30.23 16.696 0 30.23 13.533 30.23 30.23"/>
  </symbol>

  <symbol id="vimeo" viewBox="0 0 100 87">
    <path d="M99.95 20.384c-.444 9.753-7.243 23.108-20.393 40.058C65.96 78.148 54.457 87 45.047 87c-5.826 0-10.76-5.39-14.79-16.174l-8.07-29.654c-2.994-10.778-6.203-16.174-9.634-16.174-.748 0-3.366 1.577-7.848 4.72L0 23.643c4.935-4.345 9.804-8.69 14.594-13.04C21.176 4.907 26.117 1.91 29.41 1.607c7.783-.75 12.573 4.58 14.37 15.99 1.944 12.31 3.288 19.968 4.044 22.965 2.243 10.214 4.71 15.314 7.408 15.314 2.093 0 5.237-3.312 9.43-9.936 4.187-6.626 6.43-11.667 6.733-15.13.596-5.718-1.648-8.584-6.734-8.584-2.39 0-4.86.552-7.4 1.643C62.177 7.734 71.567-.098 85.427.35c10.275.302 15.12 6.98 14.527 20.032"/>
  </symbol>

  <symbol id="twitter" viewBox="0 0 16 16">
    <path d="M16 3.038c-.59.26-1.22.437-1.885.517.677-.407 1.198-1.05 1.443-1.816-.634.37-1.337.64-2.085.79-.598-.64-1.45-1.04-2.396-1.04-1.812 0-3.282 1.47-3.282 3.28 0 .26.03.51.085.75-2.728-.13-5.147-1.44-6.766-3.42C.83 2.58.67 3.14.67 3.75c0 1.14.58 2.143 1.46 2.732-.538-.017-1.045-.165-1.487-.41v.04c0 1.59 1.13 2.918 2.633 3.22-.276.074-.566.114-.865.114-.21 0-.41-.02-.61-.058.42 1.304 1.63 2.253 3.07 2.28-1.12.88-2.54 1.404-4.07 1.404-.26 0-.52-.015-.78-.045 1.46.93 3.18 1.474 5.04 1.474 6.04 0 9.34-5 9.34-9.33 0-.14 0-.28-.01-.42.64-.46 1.2-1.04 1.64-1.7z"/>
  </symbol>

</svg>
