<svg id="car" viewBox="0 0 128 128">
  <path d="M127 63.15a16.35 16.35 0 0 0-3.49-7.62c-.69-.79-1.52-1.48-2.34-2.26.79-.36 1.6-.69 2.37-1.09a8.31 8.31 0 0 0 3.81-3.31c.84-1.56.6-2.88-.9-3.81a11.31 11.31 0 0 0-2.9-1.29 35.3 35.3 0 0 0-8.66-1.11 1.16 1.16 0 0 0-1.11.56c-.63.9-1.34 1.76-2.11 2.75-.2-.47-.31-.73-.41-1A91.93 91.93 0 0 0 102.87 28a10.19 10.19 0 0 0-4.66-4.16 22.22 22.22 0 0 0-4.35-1.18c-2.94-.51-5.86-1.02-8.86-1.4s-6-.63-9-.84-6.2-.42-9.31-.42c-4 0-8 .11-12.05.25-2.51.09-5 .28-7.53.53s-4.71.59-7.05.95-4.91.79-7.36 1.2a11.13 11.13 0 0 0-7.76 5.37A89.33 89.33 0 0 0 18 41.82c-.55 1.32-1.07 2.66-1.66 4.16-.77-1-1.48-1.85-2.11-2.76a1.16 1.16 0 0 0-1.12-.56 36.13 36.13 0 0 0-8.59 1.1 8 8 0 0 0-3.47 1.7 2.33 2.33 0 0 0-.83 1.88A3.56 3.56 0 0 0 1.47 50a31.33 31.33 0 0 0 3.47 2.43 13.68 13.68 0 0 0 1.88.85v.16a3 3 0 0 1-.27.23 12.91 12.91 0 0 0-4.33 5.63A33.74 33.74 0 0 0 0 71.63c-.1 3.39.13 6.79.25 10.19.05 1.42.2 2.84.3 4.27.26 3.46.58 6.91.74 10.38.12 2.56 0 5.14 0 7.71A3.63 3.63 0 0 0 5.2 108h16.55a4.56 4.56 0 0 0 1.83-.43c1.62-.75 2.06-2.17 2-3.84 0-1.06 0-1.1 1-1.17 2.7-.19 5.4-.43 8.11-.52 6.3-.2 12.6-.4 18.9-.47 15.74-.17 31.48-.12 47.19.93 1.56.1 1.56.1 1.59 1.66v.14a3.61 3.61 0 0 0 3.82 3.71h16.55a3.61 3.61 0 0 0 3.84-3.77 145.31 145.31 0 0 1 .54-15.53c.38-3.35.37-6.74.65-10.1a53.69 53.69 0 0 0-.77-15.46zM10.58 75.5a22.69 22.69 0 0 1-1.66-4.28 2 2 0 0 1 2.36-2.58c3.22.39 6.44.83 9.66 1.26 1.31.17 2.63.32 3.94.54a5.27 5.27 0 0 1 3.8 2.72 11 11 0 0 1 1 2.43 2.07 2.07 0 0 1-2.16 2.7H15.25a4.82 4.82 0 0 1-4.67-2.79zm20.9 11.34a2.48 2.48 0 0 1-1.09.2H16.07c-1.22 0-1.89-.6-1.88-1.63a1.72 1.72 0 0 1 1.92-1.66h14.32A1.74 1.74 0 0 1 32.25 85a1.57 1.57 0 0 1-.77 1.84zm-8.94-39.75c.54-1.33 1.08-2.69 1.65-4a79.72 79.72 0 0 1 6-11.6 5.3 5.3 0 0 1 4-2.56c2.28-.3 4.53-.78 6.8-1.13q3-.46 6.06-.78c2.13-.22 4.26-.46 6.39-.52 4.89-.14 9.79-.27 14.69-.23 3.42 0 6.84.21 10.25.53 3.61.34 7.2.9 10.79 1.39 1.69.23 3.38.51 5.06.81a5.14 5.14 0 0 1 3.5 2.47A86.18 86.18 0 0 1 105 46.06c.14.35.26.7.38 1a649.16 649.16 0 0 0-82.84.03zm90.36 39.78a2.11 2.11 0 0 1-.9.13H97.39a1.63 1.63 0 0 1-1.72-1.93 1.7 1.7 0 0 1 1.79-1.39h14.56a1.78 1.78 0 0 1 1.73 1.32 1.61 1.61 0 0 1-.86 1.87zm6.1-15.28a21.72 21.72 0 0 1-2.08 4.64 4.37 4.37 0 0 1-4 2.05h-12.19s-2.87-1.23-2.28-3.15c.65-2.12 1.77-3.87 4-4.53a26 26 0 0 1 3.71-.64c2.37-.33 4.74-.63 7.12-.94 1.2-.15 2.4-.33 3.6-.42 1.64-.11 2.64 1.15 2.12 2.99z"/>
  </svg>