<svg id="download" viewBox="0 0 16 16">
    <path d="M11.166 11.985L9 14.222v-7.03c0-.285-.224-.517-.5-.517s-.5.232-.5.517v7.03l-2.167-2.237c-.19-.197-.5-.197-.69 0-.19.196-.19.516 0 .712l2.983 3.08c.004.004.003.013.008.018.006.007.003.018.01.024.006.005.016.002.022.01.083.077.19.125.31.132.007 0 .01.003.017.003l.008.002.01-.002c.008 0 .014-.006.022-.006.1-.01.187-.052.26-.113.022-.015.05-.01.066-.027.013-.013.008-.032.02-.046.003-.005.01-.007.012-.012l2.97-3.064c.19-.196.19-.516 0-.712-.194-.198-.503-.198-.694 0zm1.094-7.773C11.672 2.352 9.998 1 8 1 5.826 1 4.012 2.59 3.592 4.705 1.542 5.14 0 7.013 0 9.256c0 2.39 1.753 4.334 4 4.595V12.82c-1.694-.252-3-1.742-3-3.56C1 7.26 2.567 5.644 4.5 5.644 4.5 3.65 6.067 2.032 8 2.032c1.77 0 3.215 1.358 3.45 3.118C13.43 5.26 15 6.933 15 9c0 1.48-.814 2.75-2 3.395v1.154c1.756-.722 3-2.482 3-4.55 0-2.35-1.604-4.31-3.74-4.788z"/>
  </svg>