<svg id="feeding" viewBox="0 0 128 128">
    <title>An mother breastfeeding icon</title>
    <path fill="none" d="M70.64 71.28c-2-.73-4.06-1.37-6.2-.83-1.65.41-3.23 1.06-5 1.65a9.92 9.92 0 0 0-3.83-7.22A9.52 9.52 0 0 0 47.48 63c-5 1-8.31 5.87-7.59 11.31a9.31 9.31 0 0 0 3.41 6.1 9.69 9.69 0 0 0 10.23 1.55c.45 3.23 2.75 4.44 5.4 5.08a35.92 35.92 0 0 0 5.89.85A29.41 29.41 0 0 0 87.29 80c.52-.47 1-1 1.55-1.63-1.1-.45-2-.85-2.93-1.21-5.08-1.98-10.15-3.99-15.27-5.88z"/>
    <path d="M61.06 35.5A16.19 16.19 0 0 0 73.23 33a17 17 0 0 0 7.35-10.17A17.76 17.76 0 0 0 77.62 7a17.1 17.1 0 0 0-13.18-7 15.81 15.81 0 0 0-3.57.37 14.71 14.71 0 0 0-5.54 2.1A17.81 17.81 0 0 0 46.74 18a17.26 17.26 0 0 0 2.57 9.31 16.78 16.78 0 0 0 11.75 8.19zm29.52 60.97a53.37 53.37 0 0 0 9.53-6.47c2.65-2.42 3.91-5.25 3.25-8.8-.85-4.53-1.65-9.08-2.75-13.55-1.24-5-2.8-10-4.19-15a15 15 0 0 0-7.25-9 24 24 0 0 0-12.57-3.12h-28a19.8 19.8 0 0 0-10.3 2.67 13.75 13.75 0 0 0-6.59 8.25c-.91 3.34-1.9 6.66-2.84 10a128.07 128.07 0 0 0-4.27 19.78c-.27 2.29-.34 4.6 1.31 6.44a28.84 28.84 0 0 0 4.63 4.4c2.78 2 5.76 3.62 8.69 5.34a.89.89 0 0 1 .48 1.29c-.82 2.39-1.6 4.8-2.39 7.2l-5.76 17.52c-.49 1.48-.95 3-1.44 4.53H99.6c-.8-2.62-1.58-5.18-2.37-7.74q-3.52-11.4-7.06-22.79c-.17-.42-.06-.68.41-.95zM87.29 80a29.41 29.41 0 0 1-22.47 7.88 35.92 35.92 0 0 1-5.9-.88c-2.65-.64-5-1.84-5.4-5.08a9.69 9.69 0 0 1-10.23-1.52 9.31 9.31 0 0 1-3.41-6.1c-.71-5.44 2.56-10.3 7.6-11.3a9.52 9.52 0 0 1 8.18 1.89 9.92 9.92 0 0 1 3.83 7.22c1.73-.59 3.32-1.24 5-1.65 2.14-.53 4.22.11 6.2.83 5.12 1.89 10.19 3.9 15.27 5.87.92.36 1.83.75 2.93 1.21-.63.63-1.08 1.15-1.6 1.63z"/>
  </svg>