<svg id="instagram" viewBox="0 0 504 504">
    <path d="M252 45.47c67.266 0 75.233.257 101.797 1.47 24.562 1.12 37.9 5.224 46.78 8.673 11.757 4.57 20.15 10.03 28.965 18.845 8.815 8.815 14.275 17.208 18.844 28.966 3.45 8.878 7.554 22.217 8.675 46.778 1.215 26.565 1.47 34.532 1.47 101.798s-.255 75.233-1.47 101.797c-1.12 24.562-5.222 37.9-8.672 46.78-4.57 11.757-10.03 20.15-18.844 28.965-8.815 8.815-17.208 14.275-28.966 18.844-8.878 3.45-22.217 7.554-46.78 8.675-26.56 1.215-34.526 1.47-101.796 1.47-67.27 0-75.236-.255-101.796-1.47-24.562-1.12-37.9-5.222-46.778-8.672-11.76-4.57-20.152-10.03-28.967-18.844-8.815-8.815-14.275-17.208-18.844-28.966-3.45-8.878-7.554-22.217-8.675-46.778-1.212-26.566-1.47-34.533-1.47-101.8s.258-75.232 1.47-101.796c1.12-24.562 5.225-37.9 8.675-46.78 4.57-11.757 10.03-20.15 18.844-28.965 8.814-8.817 17.207-14.277 28.966-18.847 8.877-3.45 22.216-7.553 46.777-8.674 26.565-1.214 34.532-1.47 101.798-1.47m0-45.39c-68.417 0-76.995.29-103.865 1.514-26.815 1.224-45.127 5.482-61.152 11.71-16.566 6.438-30.615 15.052-44.62 29.057-14.005 14.006-22.62 28.055-29.057 44.62-6.228 16.026-10.486 34.338-11.71 61.153C.37 175.003.08 183.583.08 252s.29 76.997 1.515 103.866c1.224 26.815 5.482 45.127 11.71 61.152 6.438 16.565 15.052 30.615 29.057 44.62 14.005 14.005 28.054 22.62 44.62 29.057 16.025 6.228 34.337 10.486 61.152 11.71 26.87 1.226 35.448 1.515 103.866 1.515s76.997-.29 103.866-1.515c26.815-1.224 45.127-5.482 61.152-11.71 16.566-6.438 30.615-15.052 44.62-29.057 14.005-14.005 22.62-28.054 29.057-44.62 6.228-16.025 10.486-34.337 11.71-61.152 1.226-26.87 1.516-35.448 1.516-103.866s-.29-76.997-1.513-103.866c-1.224-26.815-5.482-45.127-11.71-61.152-6.438-16.566-15.052-30.615-29.057-44.62-14.006-14.005-28.055-22.62-44.62-29.057-16.026-6.228-34.338-10.486-61.153-11.71C328.997.37 320.417.08 252 .08"/>
    <path d="M252 122.635c-71.446 0-129.365 57.92-129.365 129.365 0 71.446 57.92 129.365 129.365 129.365 71.446 0 129.365-57.92 129.365-129.365 0-71.446-57.92-129.365-129.365-129.365zm0 213.34c-46.377 0-83.974-37.598-83.974-83.975 0-46.377 37.597-83.974 83.974-83.974s83.974 37.597 83.974 83.974-37.597 83.974-83.974 83.974zm164.706-218.45c0 16.695-13.534 30.23-30.23 30.23-16.696 0-30.23-13.535-30.23-30.23 0-16.697 13.534-30.23 30.23-30.23 16.696 0 30.23 13.533 30.23 30.23"/>
  </svg>