<svg id="kids" viewBox="0 0 128 128">
  <path d="M26.66 94.75v.56c0 1.5 0 1.51 1.39 2a15.84 15.84 0 0 1 10.2 14.4 15.4 15.4 0 0 1-3.59 10.4 15.83 15.83 0 0 1-9.49 5.57 15 15 0 0 1-12.62-3.25 14.9 14.9 0 0 1-6-12.65C6.78 105.61 9.77 101 15.17 98a.76.76 0 0 1 .21-.11c1.63-.29 1.95-1.33 1.81-2.83s0-2.83-.06-4.24a2.2 2.2 0 0 1 1-2q6.26-5.13 12.51-10.27 6.67-5.5 13.33-11 7-5.76 14-11.51c3.63-3 7.23-6 10.86-9s7.16-5.85 10.7-8.84c2.62-2.21 5.24-4.43 7.7-6.81 2-2 3.8-4.16 5.72-6.23 3-3.19 5.85-6.49 9.46-9a21.22 21.22 0 0 1 7.89-3.83c3.67-.74 6.86.37 9.84 2.41a14.18 14.18 0 0 1 5.46 6.8 13.36 13.36 0 0 1 .71 7 16.5 16.5 0 0 1-3.57 7.88 37.51 37.51 0 0 1-2.53 2.86 3.26 3.26 0 0 1-5-.47c-1.42-1.81-.9-3.37 1-5.11a12.21 12.21 0 0 0 3.31-5 7 7 0 0 0-2.94-8.18 6.79 6.79 0 0 0-7.69-.31 33 33 0 0 0-7.83 6.35c-2.6 2.85-5.2 5.7-7.84 8.52-2.13 2.27-2.22 2.26-1.71 5.29a65.63 65.63 0 0 1 .73 13.93 74.84 74.84 0 0 1-1.93 14.28 58.69 58.69 0 0 1-3.82 10.95c-.36.77-.86 1.47-1.21 2.24a1.09 1.09 0 0 0 .1 1c2.5 2.87 5 5.72 7.55 8.57 1.39 1.57 2.81 3.13 4.16 4.74a1.3 1.3 0 0 0 1.45.5 13.91 13.91 0 0 1 7.31.49 15.4 15.4 0 0 1 9.49 8.2 15.12 15.12 0 0 1 0 13.83 15.33 15.33 0 0 1-11.42 8.66c-5.9 1.11-10.82-.86-14.74-5.23a15.67 15.67 0 0 1-.59-20 .86.86 0 0 0-.08-1.3q-3.9-4.38-7.77-8.78a25.79 25.79 0 0 1-1.8-2c-.52-.73-1-.7-1.66-.26a16.26 16.26 0 0 1-6.51 2.45 52.62 52.62 0 0 1-11.55.26 37 37 0 0 1-9.48-2 58.31 58.31 0 0 1-5.77-2.5c-2.31-1.07-4.6-2.19-6.9-3.3a1.08 1.08 0 0 0-1.35.17c-2.76 2.33-5.58 4.6-8.35 6.92a1.86 1.86 0 0 0-.53 1.05 9.35 9.35 0 0 0-.18 1.51zM61.62 0a18.62 18.62 0 0 1 18.32 18.76 18.33 18.33 0 1 1-36.65 0A18.58 18.58 0 0 1 61.62 0zM43.07 62.51c-1.38 1.18-2.68 2.31-4 3.43-1.81 1.53-3.63 3-5.45 4.56l-9.59 8c-2.44 2.06-4.86 4.13-7.3 6.18-1.56 1.31-3.06 2.71-5.18 3.15a8 8 0 0 1-7.31-1.94 8.08 8.08 0 0 1-1.92-9.47 10.39 10.39 0 0 1 3.08-3.6c3.19-2.65 6.34-5.35 9.51-8 2.46-2.07 4.88-4.19 7.39-6.2a13.79 13.79 0 0 1 8.28-3.33 11 11 0 0 1 5.23 1.18 22.71 22.71 0 0 1 7.26 6.04z"/>
  </svg>