<svg id="logo" viewBox="0 0 391 254">
      <path d="M219.2 119c-.6-4.5-5.6-5.9-8.6-8.4-6.9-5.3-16.7-4.1-23.7.3-9.1 5.7-14.7 15.1-19.5 24.4-1.1-4-2.6-8.1-5.9-10.7-3.8-3.7-9.7-5.1-14.5-2.8-5.7 3-11.2 6.4-17 9.3-.6.1-1.7.2-2.2.3 1.7-6.9 4.7-13.4 7-20 1.5-5.4 2.2-11.1 4-16.5 4-12.6 8.5-25 13-37.5 2.9-7.3 6.8-14.5 7.6-22.5.1-5.7-1.2-11.7-5.2-16-1.2-1.3-3.3-2.5-4.9-1.1-2.4 3.6-1.8 8.2-3.1 12.2-13.2 40.8-24.3 82.2-34.2 123.9-3.3 14.7-7.4 29.2-10.6 43.9-.6 2.5-.6 5-.3 7.5 4.3-5.3 6.9-11.8 10.4-17.6 2.8 2 5.1 5.1 8.5 6 3.8-.3 6.6-3.2 9.9-4.9 2.1-1 4.3-1.6 6.2-2.8 9.6-6.1 17.9-14.1 25-22.9 0 6.3 1.9 12.9 6.7 17.1 3.5 3.1 7.2 6.9 12.2 6.9 5.5-.8 10.8-2.7 16.1-4.3 3.9-1.1 6.4-4.5 8.2-8-6.9 1.4-13 5.5-20.3 5.2-4.5-.2-11.4.3-13.1-5.1-.8-5-.5-10.1.3-15 3.8 1.9 8.1 5.6 12.6 3.2 9.8-4.7 20.5-9.1 26.9-18.3 4.7-7.8 8.9-16.6 8.5-25.8zm-61.7 21c-2.3 8.4-8.3 15.2-14.3 21.3-7.1 6.2-14.3 12.4-22.2 17.7-1.9 1.4-4.2 1.8-6.5 1.6 1.3-9.3 4.3-18.3 6.3-27.5.7-4.8 4.2-8.8 8.2-11.3 5.9-3.7 12.1-7.2 19-8.6 2.7-.5 5.2-1.8 7.9-2.1 3 1.8 2 6.1 1.6 8.9zm48.9-18.5c-2.3 7.8-5.7 15.6-11.7 21.2-6.2 6-14.1 10-22 13.2 1.2-8.6 4.5-16.8 8.9-24.3 2.6-3.9 6.2-7.2 8.8-11.1 2.7-4.6 8.3-5.5 12.9-7.1 2.1 2.1 4.1 5 3.1 8.1zM108.6 33.5c3.2-2.9 8.5.3 8.4 4.3.7 9.6-2.2 19.6-8.7 26.8-2.3-.8-5.5-1.8-5.5-4.8-.7-9 2.5-17.9 5.8-26.3zM92 99.9c.8-3.7 3.2-7.7 7.1-8.6 3.3-.7 5.6 2.2 7 4.7 2.1 3 .5 6.6.3 9.9-.2 4.5-2.4 8.4-3.9 12.6-3.2 8.9-5.5 18.1-7.3 27.4-2.2 12-4.2 24.4-2.2 36.6 3.3-2.4 5.8-5.6 8.8-8.2-.2 5.5-2.2 10.8-5.6 15.2-.9 1.6-2.9 1.2-4.4.6-2.9-1-5.9-2.6-7.4-5.3-4.5-9.5-5.1-20.4-3.6-30.6 2.7-18.4 7.1-36.4 11.2-54.3zM236.4 82.4c3.2-1.5 5.6 2.1 6.8 4.5 3 5.3.9 11.5.9 17.2 8.8-4.3 19-4.2 28.5-2.5 4.3 1 8.8 2.4 11.9 5.6-9.3 1.2-19.2.4-28 4.1-6 2.9-11 7.5-16 11.8-2.1 1.8-4.4 3.7-5.6 6.3-3.4 13-7.6 25.7-11.6 38.6-1.8 6.2-4.4 12.4-9.2 16.9-2.2-1.8-3.5-4.4-2.7-7.2 2.9-17.2 7.5-34.2 12.2-51 .7-1.7-.6-3-1.3-4.3 4.5-5.5 6.7-12.3 8.2-19.2 1-4.9 3.1-9.5 3.8-14.4.3-2 .1-4.8 2.1-6.4z"/><path d="M372.4 55c-.7-3-4.2-2.2-6.4-2.3-10.9.6-21.8-1.2-32.6.4-5.9.6-11.8.4-17.7.5.2-2.9.2-6 1.2-8.8 1.9-5.3 2.8-10.9 4.6-16.3 2.6-7.8 5.3-16.7 1.7-24.6-1.2-3.3-6.4-4.6-8.5-1.5-2.7 6.9-3.3 14.4-5.4 21.4-2.8 9.8-5.6 19.6-7.3 29.6-16.7-.5-33.3.8-50-.3-3.5-.2-8-2.4-10.7 1.1-1.2 1.9-3.2 4.8-1.4 6.9 10.7-.8 21.5 1.5 32-1.2 2.7 1.2 5.5 1.4 8.2.2 2.3.6 4.6.8 6.9.1.5.1 1.5.3 2.1.5 4-.1 8 .5 12.1.7-4.9 24-11.2 47.8-17.1 71.6-3.6 16.4-7.1 32.9-12.2 49-1 3.8-4.2 7-3.7 11.1.3 4.6 4.5 7.6 8.4 9.4 1.7.9 3.8-.5 3.6-2.4 2.4-15.5 9.6-30.2 9.2-46.1.4-2.4 2.5-4.1 3.4-6.3.7-2.8-1.3-5.8.5-8.3 1.7-2.5 2.5-5.4 1.6-8.3 1.8-2 2.5-4.4 2.2-7 2.8-4 2.8-9 4.9-13.3-.4-.4-1.2-1.1-1.6-1.5 4.6-3.4 3.8-9.5 5.2-14.4-.3-2.7.1-5.4 1.3-7.9 3.5-8.4 4.6-17.5 7.1-26.2 8.6.8 17.4.8 26 .3 8.3-1 16.7 1 25 0 3.1-.8 7.9-2.2 7.4-6.1zm-97.9 1.6c.4-1.6 3.4-1.2 4.5-.5-.7 1.1-3.2.9-4.5.5zm12.5.4h-5.4l.2-2h5.3c0 .5-.1 1.5-.1 2zm2.9-.3c-.9 0-1.7-.4-2.3-1.2 4.2-.2 8.5-.1 12.7.3-3.3 1.3-6.9 1.1-10.4.9zm-5.1 92.3c0-1-.1-2.1-.1-3.1.5-.1 1.5-.2 2-.2-.6 1-1.3 2.1-1.9 3.3zm1.3-4.7c-1.9-.2-.6-3.8 1.1-2.9.5 1.3.1 2.2-1.1 2.9zm.9-6.2c-.7-3-.7-7.7 2.7-9-.1 3.2-1.2 6.3-2.7 9zm3.5-11.4l-1.9 1.7c1.5-6.3 2.7-12.8 5-18.9.4 5.9-1.6 11.6-3.1 17.2zm2.9-18.5c.7-3.2 1.2-6.9 4-9-.4-.3-1.1-.9-1.5-1.2l2.4-3c-.9 4.4-.5 10.5-4.9 13.2zm7.1-19.2c-1.6.7-2.1.1-1.5-1.6 1.7-.6 2.2-.1 1.5 1.6zM85.7 195.5c-7.3-2.6-15.1-.8-22.6-1.3-15-.7-30-.7-44.9-2.3.1-4.1 1.7-8 2.6-11.9 2-8 4.2-15.8 6.8-23.6 1.9-5.7 2.8-11.6 4.7-17.2C38.8 121.3 45.6 103.4 51 85c5-10.3 9.4-20.9 13.5-31.6 3-8.6 4.8-17.5 7.1-26.3.6-2.7 1.7-5.4 1.4-8.2-.9-3.6-4.8-5.7-8.1-6.5-3.7-.1-3.2 4.4-3.8 6.9-2.5 11.8-6.9 23-10.8 34.3-8.4 23.2-16.7 46.5-25 69.7-6.7 22.1-13.1 44.2-19.9 66.3-.9 2.9-3.9 4.6-4.9 7.4-1 2.7-.5 5.9 1.3 8.2 1.7 2.7 4.5 5.8 8.1 5.1 16-4.7 32.7-1.2 49.1-1.8 7.5-.3 14.9-.8 22.4-1.5 2.5-.3 5.9-.4 7-3.2.5-2.8-.1-6.5-2.7-8.3zm-45-105.8c.1 2.4-.5 4.9-2.5 6.5.2-2.3.3-5.1 2.5-6.5zm-21 61c5.1-15.1 9.5-30.5 14.8-45.6.9-2.1 1.2-4.8 3.3-6.1-5.9 19.2-12.4 38.1-18.5 57.2-.9 2.6-1.5 5.4-2.9 7.8-.2-4.6 2.1-8.9 3.3-13.3z"/><path d="M385.6 57.5c-2.7-1.7-5.9-.4-8.7.4-1.1 5-2.5 9.8-4.3 14.5-4.8 14.6-13.7 27.4-22.2 40.1-2.4 4.2-5.8 8.1-10.8 9.1-.9-4.5-.5-9.2.4-13.6 1.7-8.6 3.4-17.2 4.4-25.9 1.7-6.8-6.7-14.1-13.1-10.7-3 3-.4 7.8-1.4 11.5-2.4 12.5-5.2 25.6-1.2 38.1 1.6 6 6.3 10.6 11.5 13.8 2.5 1.6 6.2 2.5 8.6.2 5.2-4.9 10-10.2 14-16.1-.2 2.1-.4 4.2-.8 6.3-3.6 17.1-7.2 34.3-11.5 51.3-4 16.8-9.7 33.6-20.7 47.1-5 6.8-11.3 12.5-18.5 16.9-5.8 3.1-12.2 5-17.3 9.2 5.1 4 11.7 3.4 17.8 4 3.3-.7 6.3-2.3 9.5-3.3 1.8-.5 2.8-2 3.7-3.4 2.8-.7 5-2.5 6.1-5.2 3-1.5 5.5-4 6.7-7.2 5.9-5.7 10.1-13 13.2-20.6.7-2.6 1.4-5.1 2.2-7.7-1.5-3.4 1.9-6.1 2.9-9.2 3.8-11 6.4-22.4 9-33.8 3.5-10.2 5-21 8-31.4 3.7-17.4 7.8-34.8 13.1-51.8 1.5-4 4.1-7.8 4.1-12.2.1-3.8-1.3-8.2-4.7-10.4zm-33.1 128.6c-3.4 13.3-6.8 27.3-15.7 38.2 1.6-7.2 5.8-13.3 8.7-19.9 1.7-3.6 1.9-7.7 3.1-11.5 1.9-5.5 2.4-11.5 5.8-16.3l-1.2-.1c.8-4.4 2-8.7 3.4-12.9.7 7.8-2.5 15-4.1 22.5zm8.3-37.1c-.6 4.1-1.4 8.2-3.3 11.9.5-5.1 1.5-10.1 2.4-15.1.6 1 1.4 2 .9 3.2zm.8-4.8c-.7-3.1-.4-6.4 2.1-8.6-.1 3-.5 6-2.1 8.6zM114 228c4.2-5.9 13.6-6.8 18.9-1.9 1.8 1.6 2.5 3.9 3.3 6.1h-2.9c-1.3-5.2-7.2-8.2-12.2-6.3-10.3 3.7-9.4 22.5 1.8 24.2 5.6 1.1 10.1-3.8 10.7-9h2.8c-.7 3.3-1.7 6.8-4.5 8.9-5.8 4.7-15.6 2.6-19-4.1-2.7-5.5-2.5-12.7 1.1-17.9zM171.7 223.6h2.9c0 6.1-.1 12.2 0 18.4-.1 3 1.3 6.5 4.4 7.6 4.2 1.7 10.5.4 11.6-4.6.8-7.1.3-14.3.5-21.4.7 0 2.1.1 2.7.1 0 6.5.1 12.9-.1 19.4-.1 3.5-2.1 7-5.3 8.4-3.6 1.6-8.1 1.6-11.7-.2-3.4-1.7-5-5.6-5-9.2 0-6.2.1-12.4 0-18.5zM235.3 224.3c6.7-3.6 16.8 0 17.7 8.1-3.5.8-3.6-3.2-5.6-4.9-4.1-3.5-11-2.6-14.1 1.8-3.3 4.8-3.3 11.6-.2 16.5 2.9 4.6 10 5.9 14 2.2 2.1-1.7 2.8-4.4 3.4-6.9h2.9c-.7 3.5-1.9 7.2-5 9.3-6.1 4.3-15.8 1.9-18.8-5-3.2-7-1.8-17.3 5.7-21.1zM142.2 223.7l3-.1v12.2h16.5v-12.2h2.9c0 9.4-.1 18.8 0 28.2-.7.1-2.2.2-2.9.3v-13.8h-16.5v13.6h-2.9c-.1-9.4 0-18.8-.1-28.2zM218.1 238.2c5.8-2.1 6.3-11.4.5-13.7-5.7-1.8-11.7-.5-17.6-.9.1 9.4 0 18.9 0 28.3h2.8c0-4.1 0-8.2-.1-12.4 4.2-.1 8.4-.4 12.5.1 4.3 2.3 2.8 8.1 3.8 12.1.8 0 2.4.1 3.2.2-1.8-4.5.7-11.4-5.1-13.7zm-2.1-1.5c-4 .5-8.2.5-12.2.1.1-3.6 0-7.1.1-10.7 4.2.2 8.5-.4 12.7.3 4.7 1.5 4.2 9.3-.6 10.3zM259.2 223.6h2.9v12.2h16.5v-12.2l3.2-.2c-.5 9.4-.2 18.9-.2 28.3l-2.9.4c.1-4.6 0-9.2 0-13.9h-16.6c0 3.9.1 7.8 0 11.7-.1.6-.2 1.6-.2 2.2-.6-.1-1.9-.3-2.5-.4l-.1-.8c-.2-9 0-18.1-.1-27.3z"/>
  </svg>