<svg id="phone" viewBox="0 0 16 16">
    <path d="M13.65.27c-.633-.44-1.326-.28-1.61.122-.17.244-1.952 2.914-2.15 3.24-.09.145-.132.318-.132.507 0 .24.07.51.21.77.136.25.58 1.03.798 1.41-.236.332-.842 1.12-2.087 2.362-1.24 1.235-2.04 1.845-2.38 2.08-.39-.216-1.17-.66-1.42-.794-.49-.253-.97-.28-1.3-.074-.3.2-2.96 1.97-3.21 2.15-.24.17-.37.48-.37.813 0 .263.08.542.25.785.012.03 1.69 2.37 2.66 2.34 2.723-.08 5.93-2.725 8.133-4.925 2.204-2.2 4.852-5.39 4.94-8.12v-.02c0-.953-2.324-2.632-2.346-2.65zm-3.304 10.09c-2.915 2.905-5.543 4.55-7.413 4.635-.354-.126-1.26-1.04-1.89-1.91-.044-.062-.07-.143-.07-.216 0-.02.002-.03.004-.05.41-.28 2.694-1.79 3.122-2.06.04 0 .15.01.32.1.17.09.68.37 1.39.77l.55.312.52-.364c.38-.27 1.22-.915 2.5-2.19 1.28-1.28 1.93-2.114 2.2-2.5l.36-.52-.32-.546c-.308-.53-.67-1.175-.78-1.384-.09-.17-.1-.282-.1-.313v-.01c.24-.38 1.79-2.71 2.074-3.12.04-.004.126 0 .233.077.88.633 1.8 1.53 1.93 1.882-.087 1.87-1.735 4.492-4.647 7.396z"/>
  </svg>