<svg id="tshirt" viewBox="0 0 128 128">
  <path d="M97.24 49.38v55.91a4.35 4.35 0 0 1-4.31 4.5H35.35c-1.79 0-3.42-.49-4.32-2.17a5.47 5.47 0 0 1-.56-2.47V49.46L27 51.22c-3.32 1.69-6.66 3.36-10 5.1a4.93 4.93 0 0 1-6.62-1.79Q5.74 47.13.85 39.86C-.88 37.3.22 35 2.42 33.89l16.81-8.56c4.2-2.14 8.38-4.31 12.6-6.39a7.1 7.1 0 0 1 2.94-.74c5.73-.07 11.46 0 17.2 0a.82.82 0 0 1 .9.58 1.85 1.85 0 0 0 .93 1 35.91 35.91 0 0 0 5 1.28 36.23 36.23 0 0 0 8.89.19 21.14 21.14 0 0 0 6.21-1.3 1.89 1.89 0 0 0 1.31-1.3.79.79 0 0 1 .62-.39h17.2c2 0 3.57 1 5.22 1.82l27.22 13.88a4.4 4.4 0 0 1 2.44 2.75 3.23 3.23 0 0 1-.54 2.78c-2.15 3.34-4.33 6.66-6.5 10-1.11 1.7-2.28 3.38-3.32 5.12a4.9 4.9 0 0 1-6.67 1.79c-4.34-2.27-8.73-4.46-13.09-6.69z"/>
  </svg>