 <svg id="video" viewBox="0 0 314.068 314.068">
    <path d="M293.002 78.53C249.646 3.435 153.618-22.296 78.53 21.068 3.433 64.418-22.3 160.442 21.065 235.534c43.35 75.095 139.375 100.83 214.465 57.47C310.628 249.64 336.37 153.62 293.003 78.53zM219.834 265.8c-60.067 34.694-136.894 14.108-171.576-45.97C13.568 159.76 34.16 82.935 94.23 48.26c60.07-34.69 136.894-14.106 171.578 45.97 34.685 60.077 14.098 136.887-45.974 171.57zm-6.28-115.148l-82.213-47.95c-7.49-4.373-13.532-.876-13.49 7.79l.42 95.174c.04 8.664 6.156 12.19 13.67 7.85l81.585-47.102c7.506-4.332 7.522-11.388.032-15.762z"/>
  </svg>